<?xml version="1.0" encoding="UTF-8"?>
<svg width="20px" height="20px" viewBox="0 0 20 20" version="1.1" xmlns="http://www.w3.org/2000/svg" xmlns:xlink="http://www.w3.org/1999/xlink">
    <!-- Generator: Sketch 52.6 (67491) - http://www.bohemiancoding.com/sketch -->
    <title>SVG Layer</title>
    <desc>Created with Sketch.</desc>
    <g id="Page-1" stroke="none" stroke-width="1" fill="none" fill-rule="evenodd">
        <g id="SVG-Layer" transform="translate(-6.500000, -3.500000)">
            <g id="compose">
                <polygon id="Fill-1" points="0 30 30 30 30 0 0 0"></polygon>
                <path d="M12.5391667,16.885375 L13.3179167,14.545375 C13.4091667,14.2707917 13.5633333,14.0207917 13.7679167,13.8162083 L22.905,4.66829167 C23.575,3.99745833 24.6625,3.99745833 25.3325,4.66829167 C26.0020833,5.33870833 26.0016667,6.424125 25.3325,7.09454167 L16.1933333,16.2445417 C15.9883333,16.4495417 15.7383333,16.604125 15.4633333,16.6957917 L13.1295833,17.4749583 C12.765,17.5970417 12.4175,17.2499583 12.5391667,16.885375 Z M20.0041667,23.334125 L10.0008333,23.334125 C8.15916667,23.334125 6.66666667,21.8412083 6.66666667,19.9999583 L6.66666667,9.999125 C6.66666667,8.157875 8.15916667,6.665375 10.0008333,6.665375 L15.83625,6.66454167 C16.29625,6.66454167 16.6695833,7.037875 16.6695833,7.497875 C16.6695833,7.95829167 16.29625,8.331625 15.83625,8.331625 L10.0008333,8.33204167 C9.08041667,8.33204167 8.33375,9.07829167 8.33375,9.999125 L8.33375,19.9999583 C8.33375,20.920375 9.08041667,21.6670417 10.0008333,21.6670417 L20.0041667,21.6670417 C20.9245833,21.6670417 21.6708333,20.920375 21.6708333,19.9999583 C21.6708333,19.9999583 21.6704167,14.6262083 21.6704167,14.1657917 C21.6704167,13.705375 22.04375,13.3320417 22.5041667,13.3320417 C22.9641667,13.3320417 23.3375,13.705375 23.3375,14.1657917 C23.3375,14.6262083 23.3379167,19.9999583 23.3379167,19.9999583 C23.3379167,21.8412083 21.8454167,23.334125 20.0041667,23.334125 Z" id="Fill-2" fill="#000000" fill-rule="nonzero"></path>
            </g>
        </g>
    </g>
</svg>