<?xml version="1.0" encoding="UTF-8"?>
<svg width="256px" height="256px" viewBox="0 0 256 256" version="1.1" xmlns="http://www.w3.org/2000/svg" xmlns:xlink="http://www.w3.org/1999/xlink">
    <!-- Generator: Sketch 52.6 (67491) - http://www.bohemiancoding.com/sketch -->
    <title>icon</title>
    <desc>Created with Sketch.</desc>
    <defs>
        <linearGradient x1="33.8254229%" y1="11.8691386%" x2="77.4177106%" y2="97.1919864%" id="linearGradient-1">
            <stop stop-color="#00ADFF" offset="0%"></stop>
            <stop stop-color="#006CFF" offset="100%"></stop>
        </linearGradient>
        <circle id="path-2" cx="112" cy="112" r="112"></circle>
        <filter x="-3.1%" y="-2.2%" width="106.2%" height="106.2%" filterUnits="objectBoundingBox" id="filter-3">
            <feOffset dx="0" dy="2" in="SourceAlpha" result="shadowOffsetOuter1"></feOffset>
            <feGaussianBlur stdDeviation="2" in="shadowOffsetOuter1" result="shadowBlurOuter1"></feGaussianBlur>
            <feColorMatrix values="0 0 0 0 0   0 0 0 0 0   0 0 0 0 0  0 0 0 0.370754076 0" type="matrix" in="shadowBlurOuter1"></feColorMatrix>
        </filter>
        <path d="M112.5,47 C76.8775714,47 48,73.9457099 48,107.185185 C48,126.125463 57.3793416,143.019846 72.0372671,154.052191 L72.0372671,177 L93.9989161,164.853426 C99.8600031,166.488056 106.06923,167.37037 112.5,167.37037 C148.122429,167.37037 177,140.42466 177,107.185185 C177,73.9457099 148.122429,47 112.5,47 Z" id="path-4"></path>
        <filter x="-5.4%" y="-3.8%" width="110.9%" height="110.8%" filterUnits="objectBoundingBox" id="filter-5">
            <feOffset dx="0" dy="2" in="SourceAlpha" result="shadowOffsetOuter1"></feOffset>
            <feGaussianBlur stdDeviation="2" in="shadowOffsetOuter1" result="shadowBlurOuter1"></feGaussianBlur>
            <feColorMatrix values="0 0 0 0 0   0 0 0 0 0   0 0 0 0 0  0 0 0 0.5 0" type="matrix" in="shadowBlurOuter1"></feColorMatrix>
        </filter>
    </defs>
    <g id="icon" stroke="none" stroke-width="1" fill="none" fill-rule="evenodd">
        <g id="Group" transform="translate(16.000000, 16.000000)">
            <g id="Oval">
                <use fill="black" fill-opacity="1" filter="url(#filter-3)" xlink:href="#path-2"></use>
                <use fill="url(#linearGradient-1)" fill-rule="evenodd" xlink:href="#path-2"></use>
            </g>
            <g id="facebook-messenger" transform="translate(66.000000, 47.000000)" fill="#0084FF" fill-rule="nonzero" stroke="#FFFFFF" stroke-width="14">
                <path d="M26.9359974,95.6491042 C30.6099537,98.0417415 33.2018539,99.6039596 34.5376914,100.256537 C37.1970353,101.555667 41.0290364,103.126923 45.9906303,104.942357 C50.9869088,106.301267 56.1920147,107 61.5,107 C91.7134208,107 116,84.4905024 116,57 C116,29.5094976 91.7134208,7 61.5,7 C31.2865792,7 7,29.5094976 7,57 C7,72.1293072 14.3783792,86.1828092 26.9359974,95.6491042 Z" id="Shape"></path>
            </g>
            <g id="Path" fill-rule="nonzero">
                <use fill="black" fill-opacity="1" filter="url(#filter-5)" xlink:href="#path-4"></use>
                <use fill="#FFFFFF" xlink:href="#path-4"></use>
            </g>
        </g>
        <path d="M121.5,106.333333 C126.761924,105.851546 135.1212,125.24394 139,123.5 C147.544742,119.658215 163.875472,104.989406 172,100 C172.474922,99.7083428 174.243676,101.020591 172,104 C164.477751,113.988901 140.635828,140.5 135.5,140.5 C128.832298,140.5 124.5,124.91225 119,124.91225 C115.658121,124.91225 106.69463,136.206239 92,146.5 C91.4780754,146.865614 85.0877178,150.728059 89,144 C95.7928054,132.318226 115.612055,106.87244 121.5,106.333333 Z" id="Line" fill="#007BFF"></path>
    </g>
</svg>